<?xml version="1.0" standalone="no"?>
<!DOCTYPE svg PUBLIC "-//W3C//DTD SVG 20010904//EN"
 "http://www.w3.org/TR/2001/REC-SVG-20010904/DTD/svg10.dtd">
<svg version="1.0" xmlns="http://www.w3.org/2000/svg"
 width="423.000000pt" height="423.000000pt" viewBox="0 0 423.000000 423.000000"
 preserveAspectRatio="xMidYMid meet">
<metadata>
Created by potrace 1.14, written by Peter Selinger 2001-2017
</metadata>
<g transform="translate(0.000000,423.000000) scale(0.100000,-0.100000)"
fill="#000000" stroke="none">
<path d="M0 2115 l0 -2115 2115 0 2115 0 0 2115 0 2115 -2115 0 -2115 0 0
-2115z m2129 1618 c130 -126 235 -282 306 -453 15 -36 33 -78 40 -95 49 -117
86 -235 140 -452 138 -557 179 -1036 119 -1400 l-5 -33 181 0 c172 0 180 -1
180 -20 0 -62 -100 -399 -159 -535 l-39 -90 -166 -3 c-91 -1 -166 1 -166 5 0
4 20 46 45 93 35 68 105 233 105 247 0 2 -274 3 -610 3 l-610 0 21 -53 c11
-28 46 -104 77 -167 31 -63 58 -118 60 -123 2 -4 -72 -6 -165 -5 l-168 3 -24
50 c-48 100 -102 258 -141 412 -22 86 -40 163 -40 170 0 10 39 13 181 13 l182
0 -7 53 c-38 279 -35 458 15 822 78 576 247 1106 437 1375 49 69 169 200 184
200 5 0 17 -8 27 -17z m-1234 -577 c62 -30 117 -83 147 -144 l23 -47 3 -802 2
-803 -150 0 -150 0 0 910 0 910 38 0 c20 0 60 -11 87 -24z m2535 -886 l0 -910
-145 0 -145 0 0 793 c0 905 -5 852 85 943 52 53 113 82 173 83 l32 1 0 -910z"/>
<path d="M2080 3243 c-51 -86 -127 -294 -181 -493 -100 -368 -148 -677 -156
-1002 -5 -212 -4 -231 28 -395 l10 -53 319 0 c294 0 320 1 328 18 18 35 37
241 36 392 -3 453 -133 1076 -305 1463 -23 51 -45 96 -49 100 -4 5 -17 -9 -30
-30z"/>
</g>
</svg>
